<svg width="24" height="24" viewBox="0 0 24 24" fill="none" xmlns="http://www.w3.org/2000/svg">
<mask id="mask0_513_374" style="mask-type:alpha" maskUnits="userSpaceOnUse" x="0" y="0" width="24" height="24">
<rect width="24" height="24" fill="#D9D9D9"/>
</mask>
<g mask="url(#mask0_513_374)">
<path d="M11 19V5H13V19H11ZM1 16V15.425C1 15.025 1.10833 14.6583 1.325 14.325C1.54167 13.9917 1.84167 13.7417 2.225 13.575C2.65833 13.3917 3.10417 13.25 3.5625 13.15C4.02083 13.05 4.5 13 5 13C5.5 13 5.97917 13.05 6.4375 13.15C6.89583 13.25 7.34167 13.3917 7.775 13.575C8.15833 13.7417 8.45833 13.9917 8.675 14.325C8.89167 14.6583 9 15.025 9 15.425V16H1ZM15 16V15.425C15 15.025 15.1083 14.6583 15.325 14.325C15.5417 13.9917 15.8417 13.7417 16.225 13.575C16.6583 13.3917 17.1042 13.25 17.5625 13.15C18.0208 13.05 18.5 13 19 13C19.5 13 19.9792 13.05 20.4375 13.15C20.8958 13.25 21.3417 13.3917 21.775 13.575C22.1583 13.7417 22.4583 13.9917 22.675 14.325C22.8917 14.6583 23 15.025 23 15.425V16H15ZM5 12C4.45 12 3.97917 11.8042 3.5875 11.4125C3.19583 11.0208 3 10.55 3 10C3 9.45 3.19583 8.97917 3.5875 8.5875C3.97917 8.19583 4.45 8 5 8C5.55 8 6.02083 8.19583 6.4125 8.5875C6.80417 8.97917 7 9.45 7 10C7 10.55 6.80417 11.0208 6.4125 11.4125C6.02083 11.8042 5.55 12 5 12ZM19 12C18.45 12 17.9792 11.8042 17.5875 11.4125C17.1958 11.0208 17 10.55 17 10C17 9.45 17.1958 8.97917 17.5875 8.5875C17.9792 8.19583 18.45 8 19 8C19.55 8 20.0208 8.19583 20.4125 8.5875C20.8042 8.97917 21 9.45 21 10C21 10.55 20.8042 11.0208 20.4125 11.4125C20.0208 11.8042 19.55 12 19 12Z" fill="white"/>
</g>
</svg>
