<svg width="24" height="24" viewBox="0 0 24 24" fill="none" xmlns="http://www.w3.org/2000/svg">
<mask id="mask0_591_1456" style="mask-type:alpha" maskUnits="userSpaceOnUse" x="0" y="0" width="24" height="24">
<rect width="24" height="24" fill="#D9D9D9"/>
</mask>
<g mask="url(#mask0_591_1456)">
<path d="M1.4249 22L0.0249023 20.6L3.6749 16.95L2.5749 14C2.45824 13.7 2.43324 13.3542 2.4999 12.9625C2.56657 12.5708 2.75824 12.2167 3.0749 11.9L6.3749 8.6C6.5749 8.4 6.79157 8.25 7.0249 8.15C7.25824 8.05 7.51657 8 7.7999 8C8.08324 8 8.34157 8.05 8.5749 8.15C8.80824 8.25 9.0249 8.4 9.2249 8.6L11.2249 10.55C11.6749 11 12.2249 11.3542 12.8749 11.6125C13.5249 11.8708 14.2249 12 14.9749 12V14C13.9749 14 13.0416 13.8417 12.1749 13.525C11.3082 13.2083 10.5582 12.7333 9.9249 12.1L9.2249 11.4L6.8749 13.75L8.9749 15.9V22H6.9749V16.75L5.6749 15.55V17.75L1.4249 22ZM14.9749 22V15L17.0749 13L16.4749 9.5C16.2249 9.8 15.9499 10.0667 15.6499 10.3C15.3499 10.5333 15.0249 10.75 14.6749 10.95C14.1249 10.9167 13.6041 10.8 13.1124 10.6C12.6207 10.4 12.2082 10.1333 11.8749 9.8C12.6249 9.66667 13.2874 9.4125 13.8624 9.0375C14.4374 8.6625 14.9082 8.18333 15.2749 7.6L16.2749 6C16.5582 5.55 16.9499 5.24583 17.4499 5.0875C17.9499 4.92917 18.4416 4.95 18.9249 5.15L23.9749 7.3V12H21.9749V8.6L20.1749 7.9L22.9749 22H20.8749L19.0749 14.5L16.9749 16.5V22H14.9749ZM11.4749 8.5C10.9249 8.5 10.4541 8.30417 10.0624 7.9125C9.67074 7.52083 9.4749 7.05 9.4749 6.5C9.4749 5.95 9.67074 5.47917 10.0624 5.0875C10.4541 4.69583 10.9249 4.5 11.4749 4.5C12.0249 4.5 12.4957 4.69583 12.8874 5.0875C13.2791 5.47917 13.4749 5.95 13.4749 6.5C13.4749 7.05 13.2791 7.52083 12.8874 7.9125C12.4957 8.30417 12.0249 8.5 11.4749 8.5ZM16.4749 4.5C15.9249 4.5 15.4541 4.30417 15.0624 3.9125C14.6707 3.52083 14.4749 3.05 14.4749 2.5C14.4749 1.95 14.6707 1.47917 15.0624 1.0875C15.4541 0.695833 15.9249 0.5 16.4749 0.5C17.0249 0.5 17.4957 0.695833 17.8874 1.0875C18.2791 1.47917 18.4749 1.95 18.4749 2.5C18.4749 3.05 18.2791 3.52083 17.8874 3.9125C17.4957 4.30417 17.0249 4.5 16.4749 4.5Z" fill="white"/>
</g>
</svg>
