<svg width="70" height="70" viewBox="0 0 70 70" fill="none" xmlns="http://www.w3.org/2000/svg">
<mask id="mask0_422_471" style="mask-type:alpha" maskUnits="userSpaceOnUse" x="0" y="0" width="70" height="70">
<rect width="70" height="70" fill="#D9D9D9"/>
</mask>
<g mask="url(#mask0_422_471)">
<path d="M4.15621 64.1666L0.072876 60.0832L10.7187 49.4374L7.51038 40.8332C7.1701 39.9582 7.09718 38.9496 7.29163 37.8072C7.48607 36.6648 8.0451 35.6319 8.96871 34.7083L18.5937 25.0833C19.177 24.4999 19.809 24.0624 20.4895 23.7708C21.1701 23.4791 21.9236 23.3333 22.75 23.3333C23.5763 23.3333 24.3298 23.4791 25.0104 23.7708C25.6909 24.0624 26.3229 24.4999 26.9062 25.0833L32.7395 30.7708C34.052 32.0833 35.6562 33.1162 37.552 33.8697C39.4479 34.6232 41.4895 34.9999 43.677 34.9999V40.8332C40.7604 40.8332 38.0382 40.3714 35.5104 39.4478C32.9826 38.5242 30.7951 37.1388 28.9479 35.2916L26.9062 33.2499L20.052 40.1041L26.177 46.3749V64.1666H20.3437V48.8541L16.552 45.3541V51.7707L4.15621 64.1666ZM43.677 64.1666V43.7499L49.802 37.9166L48.052 27.7083C47.3229 28.5833 46.5208 29.361 45.6458 30.0416C44.7708 30.7221 43.8229 31.3541 42.802 31.9374C41.1979 31.8402 39.6788 31.4999 38.2448 30.9166C36.8107 30.3333 35.6076 29.5555 34.6354 28.5833C36.8229 28.1944 38.7552 27.453 40.4323 26.3593C42.1093 25.2655 43.4826 23.868 44.552 22.1666L47.4687 17.4999C48.2951 16.1874 49.4375 15.3003 50.8958 14.8385C52.3541 14.3767 53.7882 14.4374 55.1979 15.0208L69.927 21.2916V34.9999H64.0937V25.0833L58.8437 23.0416L67.0104 64.1666H60.8854L55.6354 42.2916L49.5104 48.1249V64.1666H43.677ZM33.4687 24.7916C31.8645 24.7916 30.4913 24.2204 29.3489 23.078C28.2066 21.9357 27.6354 20.5624 27.6354 18.9583C27.6354 17.3541 28.2066 15.9808 29.3489 14.8385C30.4913 13.6961 31.8645 13.1249 33.4687 13.1249C35.0729 13.1249 36.4461 13.6961 37.5885 14.8385C38.7309 15.9808 39.302 17.3541 39.302 18.9583C39.302 20.5624 38.7309 21.9357 37.5885 23.078C36.4461 24.2204 35.0729 24.7916 33.4687 24.7916ZM48.052 13.1249C46.4479 13.1249 45.0746 12.5537 43.9323 11.4114C42.7899 10.269 42.2187 8.89575 42.2187 7.29158C42.2187 5.68742 42.7899 4.31415 43.9323 3.17179C45.0746 2.02943 46.4479 1.45825 48.052 1.45825C49.6562 1.45825 51.0295 2.02943 52.1718 3.17179C53.3142 4.31415 53.8854 5.68742 53.8854 7.29158C53.8854 8.89575 53.3142 10.269 52.1718 11.4114C51.0295 12.5537 49.6562 13.1249 48.052 13.1249Z" fill="white" fill-opacity="0.9"/>
</g>
</svg>
