<?xml version="1.0" encoding="utf-8"?>
<!-- Generator: Adobe Illustrator 23.0.0, SVG Export Plug-In . SVG Version: 6.00 Build 0)  -->
<svg version="1.1" id="Capa_1" xmlns="http://www.w3.org/2000/svg" xmlns:xlink="http://www.w3.org/1999/xlink" x="0px" y="0px"
	 viewBox="0 0 385 114.6" style="enable-background:new 0 0 385 114.6;" xml:space="preserve">
<style type="text/css">
	.st0{fill:#413384;}
	.st1{fill:url(#SVGID_1_);}
	.st2{fill:url(#SVGID_2_);}
	.st3{fill:url(#SVGID_3_);}
	.st4{fill:url(#SVGID_4_);}
	.st5{fill:url(#SVGID_5_);}
	.st6{fill:url(#SVGID_6_);}
	.st7{fill:url(#SVGID_7_);}
	.st8{fill:url(#SVGID_8_);}
	.st9{fill:url(#SVGID_9_);}
	.st10{fill:url(#SVGID_10_);}
	.st11{fill:url(#SVGID_11_);}
	.st12{fill:url(#SVGID_12_);}
	.st13{fill:url(#SVGID_13_);}
	.st14{fill:url(#SVGID_14_);}
	.st15{fill:url(#SVGID_15_);}
	.st16{fill:url(#SVGID_16_);}
	.st17{clip-path:url(#SVGID_18_);}
	.st18{fill:url(#SVGID_19_);}
	.st19{fill:url(#SVGID_20_);}
	.st20{fill:url(#SVGID_21_);}
	.st21{fill:url(#SVGID_22_);}
	.st22{fill:url(#SVGID_23_);}
</style>
<path class="st0" d="M162.5,32v59.4h-14.4v-5c-5.1,4.5-11.7,7-18.4,6.9c-7.8,0-14.1-2.6-18.8-7.8c-4.8-5.2-7.2-12.1-7.1-20.7V32
	h14.4v31.9c0,5.1,1.3,9.1,3.9,11.9s6.1,4.3,10.7,4.3c5.7,0,10.8-2.9,15.4-8.8V32H162.5z M208.3,30.8c8-0.1,15.6,3.2,21,9.1
	c5.8,5.8,9,13.7,8.8,21.9c0.1,8.2-3,16.1-8.8,22c-5.4,5.9-13.1,9.1-21,9c-6.4,0.2-12.8-1.8-18-5.5v4.1h-14.5V2.6h14.5v33.8
	C195.5,32.6,201.8,30.7,208.3,30.8z M206.1,80.2c4.8,0.1,9.3-1.8,12.5-5.4c3.3-3.6,5.1-8.3,5-13.1c0.1-4.8-1.7-9.4-5-12.9
	c-3.2-3.6-7.7-5.6-12.5-5.5c-6.4-0.2-12.4,2.9-15.9,8.1v20.5C193.7,77.3,199.7,80.5,206.1,80.2L206.1,80.2z M249.5,11.5
	c0-2.4,0.9-4.7,2.6-6.3c3.6-3.4,9.2-3.4,12.8,0c1.7,1.6,2.7,3.9,2.6,6.3c0,2.3-0.9,4.6-2.6,6.1c-3.6,3.3-9.2,3.3-12.8,0
	C250.4,16,249.4,13.8,249.5,11.5L249.5,11.5z M265.7,32.2v59.2h-14.4V32.2H265.7z M293.4,2.6v88.8h-14.5V2.6H293.4z M369.9,61.8
	c0.2,8.5-3,16.6-9,22.6c-12.7,11.9-32.4,11.9-45.1,0c-6-6-9.3-14.1-9-22.6c-0.2-8.3,3.1-16.4,9-22.2c6-5.9,14.2-9.1,22.6-8.9
	c9,0,16.5,3,22.5,8.9C366.8,45.4,370.1,53.4,369.9,61.8z M355.5,61.8c0.1-4.7-1.6-9.3-4.8-12.8c-6.7-6.8-17.6-6.9-24.4-0.2
	c-0.1,0.1-0.1,0.1-0.2,0.2c-3.2,3.5-5,8.1-4.8,12.8c-0.1,4.8,1.6,9.5,4.8,13.1c3.2,3.5,7.7,5.4,12.4,5.3c4.7,0.2,9.2-1.8,12.3-5.3
	C353.9,71.3,355.6,66.6,355.5,61.8L355.5,61.8z"/>
<linearGradient id="SVGID_1_" gradientUnits="userSpaceOnUse" x1="69.0578" y1="478.3516" x2="101.881" y2="384.7415" gradientTransform="matrix(1 0 0 -1 -14.94 480.11)">
	<stop  offset="0" style="stop-color:#15ADE4"/>
	<stop  offset="0.12" style="stop-color:#19A6DF"/>
	<stop  offset="0.31" style="stop-color:#2392D0"/>
	<stop  offset="0.52" style="stop-color:#3472B8"/>
	<stop  offset="0.77" style="stop-color:#4B4597"/>
	<stop  offset="0.92" style="stop-color:#5B257F"/>
</linearGradient>
<path class="st1" d="M60.7,2.7v2.5H49.1V2.7H60.7z"/>
<linearGradient id="SVGID_2_" gradientUnits="userSpaceOnUse" x1="71.1152" y1="478.5783" x2="105.0993" y2="381.6563" gradientTransform="matrix(1 0 0 -1 -14.94 480.11)">
	<stop  offset="0" style="stop-color:#15ADE4"/>
	<stop  offset="0.12" style="stop-color:#19A6DF"/>
	<stop  offset="0.31" style="stop-color:#2392D0"/>
	<stop  offset="0.52" style="stop-color:#3472B8"/>
	<stop  offset="0.77" style="stop-color:#4B4597"/>
	<stop  offset="0.92" style="stop-color:#5B257F"/>
</linearGradient>
<path class="st2" d="M69.8,9.6v2.5H49.1V9.6H69.8z"/>
<linearGradient id="SVGID_3_" gradientUnits="userSpaceOnUse" x1="76.9492" y1="479.127" x2="109.4766" y2="386.3364" gradientTransform="matrix(1 0 0 -1 -14.94 480.11)">
	<stop  offset="0" style="stop-color:#15ADE4"/>
	<stop  offset="0.12" style="stop-color:#19A6DF"/>
	<stop  offset="0.31" style="stop-color:#2392D0"/>
	<stop  offset="0.52" style="stop-color:#3472B8"/>
	<stop  offset="0.77" style="stop-color:#4B4597"/>
	<stop  offset="0.92" style="stop-color:#5B257F"/>
</linearGradient>
<path class="st3" d="M78,16.6v2.7H57.9v-2.7H78z"/>
<linearGradient id="SVGID_4_" gradientUnits="userSpaceOnUse" x1="81.4134" y1="480.7743" x2="114.8058" y2="385.5253" gradientTransform="matrix(1 0 0 -1 -14.94 480.11)">
	<stop  offset="0" style="stop-color:#15ADE4"/>
	<stop  offset="0.12" style="stop-color:#19A6DF"/>
	<stop  offset="0.31" style="stop-color:#2392D0"/>
	<stop  offset="0.52" style="stop-color:#3472B8"/>
	<stop  offset="0.77" style="stop-color:#4B4597"/>
	<stop  offset="0.92" style="stop-color:#5B257F"/>
</linearGradient>
<path class="st4" d="M83.7,23.8v2.7H67.4v-2.7H83.7z"/>
<linearGradient id="SVGID_5_" gradientUnits="userSpaceOnUse" x1="83.1872" y1="479.3392" x2="115.7943" y2="386.321" gradientTransform="matrix(1 0 0 -1 -14.93 480.11)">
	<stop  offset="0" style="stop-color:#15ADE4"/>
	<stop  offset="0.12" style="stop-color:#19A6DF"/>
	<stop  offset="0.31" style="stop-color:#2392D0"/>
	<stop  offset="0.52" style="stop-color:#3472B8"/>
	<stop  offset="0.77" style="stop-color:#4B4597"/>
	<stop  offset="0.92" style="stop-color:#5B257F"/>
</linearGradient>
<path class="st5" d="M89.3,38.3V41H74.4v-2.7H89.3z"/>
<linearGradient id="SVGID_6_" gradientUnits="userSpaceOnUse" x1="83.1637" y1="480.5344" x2="116.2601" y2="386.1277" gradientTransform="matrix(1 0 0 -1 -14.94 480.11)">
	<stop  offset="0" style="stop-color:#15ADE4"/>
	<stop  offset="0.12" style="stop-color:#19A6DF"/>
	<stop  offset="0.31" style="stop-color:#2392D0"/>
	<stop  offset="0.52" style="stop-color:#3472B8"/>
	<stop  offset="0.77" style="stop-color:#4B4597"/>
	<stop  offset="0.92" style="stop-color:#5B257F"/>
</linearGradient>
<path class="st6" d="M87.3,31v2.7H72.2V31H87.3z"/>
<linearGradient id="SVGID_7_" gradientUnits="userSpaceOnUse" x1="78.7558" y1="486.6475" x2="112.9334" y2="389.1793" gradientTransform="matrix(1 0 0 -1 -14.94 480.12)">
	<stop  offset="0" style="stop-color:#15ADE4"/>
	<stop  offset="0.12" style="stop-color:#19A6DF"/>
	<stop  offset="0.31" style="stop-color:#2392D0"/>
	<stop  offset="0.52" style="stop-color:#3472B8"/>
	<stop  offset="0.77" style="stop-color:#4B4597"/>
	<stop  offset="0.92" style="stop-color:#5B257F"/>
</linearGradient>
<path class="st7" d="M90.1,45.5v2.7H74.9v-2.7H90.1z"/>
<linearGradient id="SVGID_8_" gradientUnits="userSpaceOnUse" x1="76.4658" y1="484.2279" x2="110.1086" y2="388.2733" gradientTransform="matrix(1 0 0 -1 -14.94 480.11)">
	<stop  offset="0" style="stop-color:#15ADE4"/>
	<stop  offset="0.12" style="stop-color:#19A6DF"/>
	<stop  offset="0.31" style="stop-color:#2392D0"/>
	<stop  offset="0.52" style="stop-color:#3472B8"/>
	<stop  offset="0.77" style="stop-color:#4B4597"/>
	<stop  offset="0.92" style="stop-color:#5B257F"/>
</linearGradient>
<path class="st8" d="M89.4,52.7v2.7H74.5v-2.7H89.4z"/>
<linearGradient id="SVGID_9_" gradientUnits="userSpaceOnUse" x1="72.8469" y1="481.3787" x2="106.0685" y2="386.6305" gradientTransform="matrix(1 0 0 -1 -14.94 480.11)">
	<stop  offset="0" style="stop-color:#15ADE4"/>
	<stop  offset="0.12" style="stop-color:#19A6DF"/>
	<stop  offset="0.31" style="stop-color:#2392D0"/>
	<stop  offset="0.52" style="stop-color:#3472B8"/>
	<stop  offset="0.77" style="stop-color:#4B4597"/>
	<stop  offset="0.92" style="stop-color:#5B257F"/>
</linearGradient>
<path class="st9" d="M87.4,60v2.7h-15V60H87.4z"/>
<linearGradient id="SVGID_10_" gradientUnits="userSpaceOnUse" x1="68.4735" y1="475.2432" x2="100.0676" y2="385.1499" gradientTransform="matrix(1 0 0 -1 -14.94 480.11)">
	<stop  offset="0" style="stop-color:#15ADE4"/>
	<stop  offset="0.12" style="stop-color:#19A6DF"/>
	<stop  offset="0.31" style="stop-color:#2392D0"/>
	<stop  offset="0.52" style="stop-color:#3472B8"/>
	<stop  offset="0.77" style="stop-color:#4B4597"/>
	<stop  offset="0.92" style="stop-color:#5B257F"/>
</linearGradient>
<path class="st10" d="M83.9,67.2V70H67.8v-2.7H83.9z"/>
<linearGradient id="SVGID_11_" gradientUnits="userSpaceOnUse" x1="47.7606" y1="469.6212" x2="80.5156" y2="376.2046" gradientTransform="matrix(1 0 0 -1 -14.94 480.11)">
	<stop  offset="0" style="stop-color:#15ADE4"/>
	<stop  offset="0.12" style="stop-color:#19A6DF"/>
	<stop  offset="0.31" style="stop-color:#2392D0"/>
	<stop  offset="0.52" style="stop-color:#3472B8"/>
	<stop  offset="0.77" style="stop-color:#4B4597"/>
	<stop  offset="0.92" style="stop-color:#5B257F"/>
</linearGradient>
<path class="st11" d="M67.4,81.6v2.7H49.1v-2.7H67.4z"/>
<linearGradient id="SVGID_12_" gradientUnits="userSpaceOnUse" x1="61.4559" y1="469.7477" x2="92.424" y2="381.4185" gradientTransform="matrix(1 0 0 -1 -14.94 480.11)">
	<stop  offset="0" style="stop-color:#15ADE4"/>
	<stop  offset="0.12" style="stop-color:#19A6DF"/>
	<stop  offset="0.31" style="stop-color:#2392D0"/>
	<stop  offset="0.52" style="stop-color:#3472B8"/>
	<stop  offset="0.77" style="stop-color:#4B4597"/>
	<stop  offset="0.92" style="stop-color:#5B257F"/>
</linearGradient>
<path class="st12" d="M74.5,81.6v2.7h-5v-2.7H74.5z"/>
<linearGradient id="SVGID_13_" gradientUnits="userSpaceOnUse" x1="42.1192" y1="469.3721" x2="76.1261" y2="372.359" gradientTransform="matrix(1 0 0 -1 -14.94 480.11)">
	<stop  offset="0" style="stop-color:#15ADE4"/>
	<stop  offset="0.12" style="stop-color:#19A6DF"/>
	<stop  offset="0.31" style="stop-color:#2392D0"/>
	<stop  offset="0.52" style="stop-color:#3472B8"/>
	<stop  offset="0.77" style="stop-color:#4B4597"/>
	<stop  offset="0.92" style="stop-color:#5B257F"/>
</linearGradient>
<path class="st13" d="M60.9,88.7v2.7H49.1v-2.7H60.9z"/>
<linearGradient id="SVGID_14_" gradientUnits="userSpaceOnUse" x1="57.6315" y1="482.9309" x2="93.4138" y2="380.8647" gradientTransform="matrix(1 0 0 -1 -14.94 480.11)">
	<stop  offset="0" style="stop-color:#15ADE4"/>
	<stop  offset="0.12" style="stop-color:#19A6DF"/>
	<stop  offset="0.31" style="stop-color:#2392D0"/>
	<stop  offset="0.52" style="stop-color:#3472B8"/>
	<stop  offset="0.77" style="stop-color:#4B4597"/>
	<stop  offset="0.92" style="stop-color:#5B257F"/>
</linearGradient>
<path class="st14" d="M86.4,95.5v2.7H68.9v-2.7H86.4z"/>
<linearGradient id="SVGID_15_" gradientUnits="userSpaceOnUse" x1="56.0982" y1="477.2261" x2="91.1863" y2="377.1402" gradientTransform="matrix(1 0 0 -1 -14.94 480.11)">
	<stop  offset="0" style="stop-color:#15ADE4"/>
	<stop  offset="0.12" style="stop-color:#19A6DF"/>
	<stop  offset="0.31" style="stop-color:#2392D0"/>
	<stop  offset="0.52" style="stop-color:#3472B8"/>
	<stop  offset="0.77" style="stop-color:#4B4597"/>
	<stop  offset="0.92" style="stop-color:#5B257F"/>
</linearGradient>
<path class="st15" d="M62.9,88.7h17.6v2.7H62.9V88.7z"/>
<linearGradient id="SVGID_16_" gradientUnits="userSpaceOnUse" x1="64.0456" y1="460.2907" x2="90.7913" y2="384.0256" gradientTransform="matrix(1 0 0 -1 -14.94 480.12)">
	<stop  offset="0" style="stop-color:#15ADE4"/>
	<stop  offset="0.12" style="stop-color:#19A6DF"/>
	<stop  offset="0.31" style="stop-color:#2392D0"/>
	<stop  offset="0.52" style="stop-color:#3472B8"/>
	<stop  offset="0.77" style="stop-color:#4B4597"/>
	<stop  offset="0.92" style="stop-color:#5B257F"/>
</linearGradient>
<path class="st16" d="M78.6,74.5v2.7H58.9v-2.7H78.6z"/>
<g>
	<defs>
		<path id="SVGID_17_" d="M45.8,77.4c-7.9,0.2-15.4-3-20.8-8.8C19.4,62.8,16.4,55,16.6,47c-0.2-8,2.9-15.7,8.4-21.5
			c5.3-5.8,12.9-9,20.8-8.9v-14C33.9,2.4,22.5,7.1,14.2,15.6C5.7,23.9,1,35.2,1.3,47C1,58.9,5.7,70.3,14.2,78.5
			c8.3,8.5,19.7,13.2,31.5,12.9L45.8,77.4z"/>
	</defs>
	<clipPath id="SVGID_18_">
		<use xlink:href="#SVGID_17_"  style="overflow:visible;"/>
	</clipPath>
	<g class="st17">
		
			<linearGradient id="SVGID_19_" gradientUnits="userSpaceOnUse" x1="38.4435" y1="478.0326" x2="38.4435" y2="386.4712" gradientTransform="matrix(1 0 0 -1 -14.94 480.11)">
			<stop  offset="0" style="stop-color:#15ADE4"/>
			<stop  offset="0.21" style="stop-color:#15ADE4"/>
			<stop  offset="0.47" style="stop-color:#2A84C5"/>
			<stop  offset="1" style="stop-color:#5B257F"/>
		</linearGradient>
		<path class="st18" d="M45.8,77.4c-7.9,0.2-15.4-3-20.8-8.8C19.4,62.8,16.4,55,16.6,47c-0.2-8,2.9-15.7,8.4-21.5
			c5.3-5.8,12.9-9,20.8-8.9v-14C33.9,2.4,22.5,7.1,14.2,15.6C5.7,23.9,1,35.2,1.3,47C1,58.9,5.7,70.3,14.2,78.5
			c8.3,8.5,19.7,13.2,31.5,12.9L45.8,77.4z"/>
		
			<linearGradient id="SVGID_20_" gradientUnits="userSpaceOnUse" x1="51.8567" y1="117.0169" x2="35.2743" y2="76.9438" gradientTransform="matrix(1 0 0 -1 0 113.05)">
			<stop  offset="6.000000e-02" style="stop-color:#85D0F4;stop-opacity:0.5"/>
			<stop  offset="0.19" style="stop-color:#96D6F6;stop-opacity:0.38"/>
			<stop  offset="0.4" style="stop-color:#AEDEF8;stop-opacity:0.22"/>
			<stop  offset="0.59" style="stop-color:#BFE4FA;stop-opacity:0.1"/>
			<stop  offset="0.76" style="stop-color:#C9E8FB;stop-opacity:3.000000e-02"/>
			<stop  offset="0.88" style="stop-color:#CDE9FB;stop-opacity:0"/>
		</linearGradient>
		<path class="st19" d="M45.8,77.4c-7.9,0.2-15.4-3-20.8-8.8C19.4,62.8,16.4,55,16.6,47c-0.2-8,2.9-15.7,8.4-21.5
			c5.3-5.8,12.9-9,20.8-8.9v-14C33.9,2.4,22.5,7.1,14.2,15.6C5.7,23.9,1,35.2,1.3,47C1,58.9,5.7,70.3,14.2,78.5
			c8.3,8.5,19.7,13.2,31.5,12.9L45.8,77.4z"/>
		
			<linearGradient id="SVGID_21_" gradientUnits="userSpaceOnUse" x1="15.5173" y1="476.9133" x2="45.3474" y2="389.2898" gradientTransform="matrix(1 7.330317e-03 7.330317e-03 -1 -9.8874 476.2201)">
			<stop  offset="0" style="stop-color:#15ADE4"/>
			<stop  offset="0.27" style="stop-color:#15ADE4"/>
			<stop  offset="0.39" style="stop-color:#17A9E1"/>
			<stop  offset="0.52" style="stop-color:#1D9DD8"/>
			<stop  offset="0.65" style="stop-color:#2789C9"/>
			<stop  offset="0.77" style="stop-color:#366DB5"/>
			<stop  offset="0.89" style="stop-color:#484A9A"/>
			<stop  offset="1" style="stop-color:#5B257F"/>
		</linearGradient>
		<path class="st20" d="M43.8,63.5c-7.8,1.2-15.7-0.9-21.8-5.8c-6.3-5-10.4-12.3-11.3-20.2c-1.3-7.9,0.7-16,5.4-22.4
			C20.6,8.5,27.7,4.3,35.5,3.3l-1.9-13.9h-0.1C21.7-9.2,11.1-2.9,4.1,6.6c-7.3,9.3-10.3,21.2-8.5,32.9C-3,51.2,3.2,61.9,12.7,68.9
			c9.4,7.3,21.3,10.3,33,8.5h0.1L43.8,63.5z"/>
		
			<linearGradient id="SVGID_22_" gradientUnits="userSpaceOnUse" x1="31.0772" y1="107.2494" x2="21.1983" y2="63.7278" gradientTransform="matrix(1 0 0 -1 0 113.05)">
			<stop  offset="0" style="stop-color:#85D0F4;stop-opacity:0.5"/>
			<stop  offset="0.33" style="stop-color:#9BD7F6;stop-opacity:0.35"/>
			<stop  offset="1" style="stop-color:#CDE9FB;stop-opacity:0"/>
		</linearGradient>
		<path class="st21" d="M43.8,63.5c-7.8,1.2-15.7-0.9-21.8-5.8c-6.3-5-10.4-12.3-11.3-20.2c-1.3-7.9,0.7-16,5.4-22.4
			C20.6,8.5,27.7,4.3,35.5,3.3l-1.9-13.9h-0.1C21.8-9.2,11.1-2.9,4.1,6.6c-7.3,9.3-10.3,21.2-8.5,32.9C-3,51.2,3.2,61.9,12.7,68.9
			c9.4,7.3,21.3,10.3,33,8.5L43.8,63.5z"/>
		
			<linearGradient id="SVGID_23_" gradientUnits="userSpaceOnUse" x1="81.8797" y1="478.2905" x2="50.388" y2="415.0227" gradientTransform="matrix(1 0 0 -1 -14.94 480.11)">
			<stop  offset="0" style="stop-color:#5B267C"/>
			<stop  offset="6.000000e-02" style="stop-color:#4B4493"/>
			<stop  offset="0.15" style="stop-color:#386AB0"/>
			<stop  offset="0.24" style="stop-color:#2987C7"/>
			<stop  offset="0.32" style="stop-color:#1E9CD7"/>
			<stop  offset="0.41" style="stop-color:#17A9E1"/>
			<stop  offset="0.49" style="stop-color:#15ADE4"/>
			<stop  offset="1" style="stop-color:#15ADE4"/>
		</linearGradient>
		<path class="st22" d="M53.4,65.6c-6.7-4.2-11.3-10.9-12.6-18.7c-1.5-7.9,0.2-16.1,4.7-22.7c4.2-6.8,11-11.6,18.7-13.4
			c7.6-1.9,15.7-0.5,22.3,3.8l7.7-11.8c-9.9-6.6-22-8.9-33.6-6.2C49-1.1,38.9,5.9,32.6,15.9c-6.6,9.8-8.9,21.9-6.3,33.5
			c2.3,11.6,9.3,21.7,19.3,28L53.4,65.6z"/>
	</g>
</g>
<path class="st0" d="M92.4,111.9h-1.3v-7.4h1.3V111.9z M104.8,111.9h-1l-4.2-5v5h-1.3v-7.4h1l4.3,5.1v-5.1h1.3V111.9z M114.6,112
	h-1.2l-3.4-7.5h1.4l2.5,5.7l2.5-5.7h1.5L114.6,112z M124.4,107.6h3.6v1.2h-3.6v1.8h4.1v1.2h-5.4v-7.4h5.4v1.2h-4.1V107.6z
	 M139.7,106.7h-1.3c-0.1-0.8-0.8-1.3-1.6-1.2c0,0,0,0,0,0c-0.9,0-1.5,0.4-1.5,1.1s0.4,0.8,1.2,1l0.9,0.2c1.5,0.3,2.3,0.9,2.3,2
	c0,0.7-0.3,1.3-0.8,1.7c-0.6,0.4-1.3,0.7-2.1,0.6c-0.8,0-1.6-0.2-2.3-0.7c-0.6-0.5-0.9-1.2-1-1.9h1.3c0.2,0.9,1,1.5,2,1.4
	c0.9,0,1.5-0.4,1.5-1c0-0.6-0.4-0.8-1.1-0.9l-1.2-0.2c-1.4-0.3-2.1-1-2.1-2.1c0-0.6,0.3-1.3,0.8-1.7c0.6-0.4,1.3-0.7,2-0.6
	C138.1,104.2,139.5,105.2,139.7,106.7L139.7,106.7z M148.3,105.7v6.2H147v-6.2h-2.6v-1.2h6.5v1.2H148.3z M157.4,111.9h-1.3v-7.4h1.3
	V111.9z M170.6,111.9h-1l-0.1-1.1c-0.6,0.9-1.6,1.4-2.6,1.3c-1,0-2-0.4-2.8-1.1c-0.7-0.7-1.1-1.7-1.1-2.7c0-1.1,0.4-2.1,1.1-2.8
	c0.7-0.7,1.7-1.2,2.8-1.1c0.8,0,1.6,0.2,2.3,0.7c0.7,0.5,1.2,1.2,1.3,2h-1.4c-0.3-0.9-1.2-1.5-2.2-1.4c-0.7,0-1.4,0.2-1.9,0.7
	c-0.5,0.5-0.8,1.2-0.7,2c0,0.7,0.2,1.3,0.7,1.8c0.5,0.5,1.1,0.8,1.8,0.7c1.1,0,2-0.7,2.3-1.7h-2.4v-1.2h3.8L170.6,111.9L170.6,111.9
	z M177.7,110.3l-0.7,1.7h-1.4l3.3-7.5h1.2l3.2,7.5h-1.4l-0.7-1.7H177.7z M179.5,106l-1.3,3h2.5L179.5,106z M193.9,109h1.4
	c-0.1,0.9-0.6,1.7-1.2,2.3c-0.7,0.6-1.5,0.8-2.4,0.8c-1,0-2-0.4-2.8-1.1c-1.5-1.5-1.5-4,0-5.5c0.7-0.7,1.7-1.1,2.8-1.1
	c0.9,0,1.7,0.3,2.4,0.8c0.7,0.6,1.1,1.3,1.2,2.2h-1.4c-0.2-1.1-1.2-1.8-2.3-1.8c-0.7,0-1.3,0.2-1.8,0.7c-1,1.1-1,2.7,0,3.8
	c0.5,0.5,1.1,0.8,1.8,0.7C192.7,110.9,193.7,110.1,193.9,109z M202.2,111.9h-1.3v-7.4h1.3V111.9z M211.7,104.3
	c2.1,0,3.8,1.7,3.8,3.9c0,2.1-1.7,3.8-3.9,3.8c-2.1,0-3.8-1.7-3.8-3.9c0-1,0.4-2,1.1-2.7C209.6,104.7,210.6,104.3,211.7,104.3z
	 M213.5,110c0.5-0.5,0.7-1.2,0.7-1.9c0-0.7-0.2-1.4-0.7-1.9c-0.5-0.5-1.1-0.8-1.8-0.8c-0.7,0-1.4,0.3-1.8,0.8
	c-0.5,0.5-0.7,1.2-0.7,1.9c0,0.7,0.2,1.4,0.7,1.9c0.5,0.5,1.1,0.8,1.8,0.8C212.3,110.8,213,110.6,213.5,110L213.5,110z M212.2,103.6
	h-1.1l0.8-1.6h1.4L212.2,103.6z M227.7,111.9h-1l-4.2-5v5h-1.3v-7.4h1l4.3,5.1v-5.1h1.3L227.7,111.9z M245,111.3
	c-0.6,0.5-1.4,0.8-2.2,0.8c-0.7,0-1.4-0.2-2-0.6c-0.5-0.4-0.8-1-0.8-1.7c0-0.9,0.5-1.7,1.3-2c-0.3-0.4-0.5-0.9-0.5-1.4
	c0-0.6,0.2-1.1,0.7-1.5c0.5-0.4,1.1-0.6,1.7-0.6c1.2,0,2.2,0.9,2.3,2.1h-1.3c-0.1-0.6-0.5-1-1-1c-0.5,0-1,0.4-1,0.9c0,0,0,0,0,0
	c0,0.3,0.1,0.6,0.3,0.8c0.4,0.4,0.8,0.8,1.2,1.2l1.2,1.1l1-1.5h1.3l-1.4,2.2l-0.1,0.1l1.6,1.5h-1.7L245,111.3z M244.2,110.5
	l-1.6-1.5l-0.4-0.4c-0.5,0.2-0.8,0.6-0.9,1.1c0,0.3,0.2,0.6,0.4,0.8c0.3,0.2,0.7,0.4,1.1,0.4C243.3,110.9,243.8,110.8,244.2,110.5
	L244.2,110.5z M262.4,104.5c1,0,2.1,0.3,2.8,1c0.7,0.7,1.2,1.6,1.1,2.6c0,1-0.4,2-1.1,2.7c-0.8,0.7-1.8,1.1-2.8,1.1h-2.8v-7.4H262.4
	z M262.4,110.7c0.7,0,1.4-0.2,1.9-0.7c0.5-0.5,0.8-1.1,0.8-1.8c0-0.7-0.3-1.3-0.8-1.8c-0.5-0.5-1.2-0.7-1.9-0.7h-1.5v5H262.4z
	 M273.2,107.6h3.7v1.2h-3.7v1.8h4.1v1.2h-5.4v-7.4h5.4v1.2h-4.1L273.2,107.6z M288.4,106.7h-1.3c-0.1-0.8-0.8-1.3-1.6-1.2
	c0,0,0,0,0,0c-0.9,0-1.5,0.4-1.5,1.1s0.4,0.8,1.2,1l0.9,0.2c1.5,0.3,2.3,0.9,2.3,2c0,0.7-0.3,1.3-0.8,1.7c-0.6,0.4-1.3,0.7-2.1,0.6
	c-0.8,0-1.6-0.2-2.3-0.7c-0.6-0.5-0.9-1.2-0.9-1.9h1.3c0.2,0.9,1,1.5,2,1.4c0.9,0,1.5-0.4,1.5-1c0-0.6-0.4-0.8-1.1-0.9l-1.2-0.2
	c-1.4-0.3-2.1-1-2.1-2.1c0-0.6,0.3-1.3,0.8-1.7c0.6-0.4,1.3-0.7,2-0.6C286.9,104.2,288.2,105.2,288.4,106.7
	C288.4,106.7,288.4,106.7,288.4,106.7z M295.3,110.3l-0.7,1.7h-1.4l3.3-7.5h1.2l3.2,7.5h-1.4l-0.7-1.7H295.3z M297,106l-1.3,3h2.5
	L297,106z M307.4,109.5v2.4h-1.3v-7.4h3c0.8,0,1.5,0.2,2.1,0.7c0.5,0.4,0.8,1.1,0.8,1.8c0,1.1-0.7,2-1.7,2.3l2.2,2.6h-1.6l-2-2.4
	L307.4,109.5z M309.1,108.3c1,0,1.6-0.5,1.6-1.3s-0.7-1.3-1.6-1.3h-1.7v2.6H309.1z M318.9,109.5v2.4h-1.3v-7.4h3
	c0.8,0,1.5,0.2,2.1,0.7c0.5,0.4,0.8,1.1,0.8,1.8c0,1.1-0.7,2-1.7,2.3l2.2,2.6h-1.6l-2-2.4L318.9,109.5z M320.6,108.3
	c1,0,1.6-0.5,1.6-1.3s-0.7-1.3-1.6-1.3h-1.7v2.6H320.6z M332.6,104.3c1,0,2,0.4,2.7,1.1c1.5,1.5,1.5,3.9,0,5.5c0,0,0,0,0,0
	c-1.5,1.5-4,1.5-5.5,0c-1.5-1.5-1.5-4,0-5.5C330.6,104.8,331.6,104.4,332.6,104.3L332.6,104.3z M334.4,110c0.5-0.5,0.7-1.2,0.7-1.9
	c0-0.7-0.2-1.4-0.7-1.9c-1-1-2.5-1-3.5-0.1c0,0-0.1,0.1-0.1,0.1c-0.5,0.5-0.7,1.2-0.7,1.9c0,0.7,0.2,1.4,0.7,1.9
	C331.8,111,333.4,111.1,334.4,110C334.4,110.1,334.4,110.1,334.4,110z M347.3,111.9H342v-7.4h1.3v6.2h3.9V111.9z M357.7,111.9h-5.2
	v-7.4h1.3v6.2h3.9V111.9z M366.2,104.3c1,0,2,0.4,2.7,1.1c1.5,1.5,1.5,3.9,0,5.5c0,0,0,0,0,0c-1.5,1.5-4,1.5-5.5,0
	c-1.5-1.5-1.5-4,0-5.5C364.2,104.8,365.2,104.4,366.2,104.3L366.2,104.3z M368,110c0.5-0.5,0.7-1.2,0.7-1.9c0-0.7-0.2-1.4-0.7-1.9
	c-1-1-2.5-1-3.5-0.1c0,0-0.1,0.1-0.1,0.1c-0.5,0.5-0.7,1.2-0.7,1.9c0,0.7,0.2,1.4,0.7,1.9C365.4,111,367,111.1,368,110
	C368,110.1,368,110.1,368,110z M373.8,31.4v5.3h-1.4v-5.3h-2.2v-1.3h5.8v1.3H373.8z M383.7,36.7h-1.4v-3.6l-1.7,2.6h-0.8l-1.7-2.6
	v3.6h-1.4v-6.6h1l2.5,3.9l2.5-3.9h1L383.7,36.7z"/>
</svg>
