<svg width="25" height="25" viewBox="0 0 25 25" fill="none" xmlns="http://www.w3.org/2000/svg">
<path d="M22.395 20.3756L18.685 16.6956C20.1251 14.9 20.8225 12.6209 20.6338 10.3269C20.4451 8.0329 19.3846 5.89838 17.6705 4.36224C15.9563 2.8261 13.7188 2.00511 11.4179 2.06807C9.117 2.13103 6.92768 3.07316 5.3001 4.70074C3.67252 6.32832 2.73039 8.51764 2.66743 10.8185C2.60447 13.1194 3.42547 15.357 4.96161 17.0711C6.49775 18.7853 8.63226 19.8457 10.9263 20.0344C13.2203 20.2231 15.4994 19.5257 17.295 18.0856L20.975 21.7656C21.0679 21.8593 21.1785 21.9337 21.3004 21.9845C21.4222 22.0353 21.553 22.0614 21.685 22.0614C21.817 22.0614 21.9477 22.0353 22.0695 21.9845C22.1914 21.9337 22.302 21.8593 22.395 21.7656C22.5752 21.5791 22.676 21.3299 22.676 21.0706C22.676 20.8113 22.5752 20.5621 22.395 20.3756ZM11.685 18.0856C10.3005 18.0856 8.94712 17.6751 7.79597 16.9059C6.64483 16.1367 5.74762 15.0435 5.21781 13.7644C4.68799 12.4853 4.54937 11.0778 4.81947 9.71997C5.08956 8.3621 5.75625 7.11482 6.73522 6.13585C7.71418 5.15688 8.96146 4.4902 10.3193 4.2201C11.6772 3.95 13.0847 4.08863 14.3637 4.61844C15.6428 5.14825 16.7361 6.04546 17.5053 7.19661C18.2744 8.34775 18.685 9.70113 18.685 11.0856C18.685 12.9421 17.9475 14.7226 16.6347 16.0353C15.322 17.3481 13.5415 18.0856 11.685 18.0856Z" fill="#898989"/>
</svg>
